<?xml version="1.0" standalone="no"?>
<!DOCTYPE svg PUBLIC "-//W3C//DTD SVG 20010904//EN"
 "http://www.w3.org/TR/2001/REC-SVG-20010904/DTD/svg10.dtd">
<svg version="1.0" xmlns="http://www.w3.org/2000/svg"
 width="512.000000pt" height="512.000000pt" viewBox="0 0 512.000000 512.000000"
 preserveAspectRatio="xMidYMid meet">
<metadata>
Created by potrace 1.14, written by Peter Selinger 2001-2017
</metadata>
<g transform="translate(0.000000,512.000000) scale(0.100000,-0.100000)"
fill="#000000" stroke="none">
<path d="M2475 5063 c-258 -29 -475 -135 -657 -324 -149 -154 -272 -379 -319
-584 -37 -162 -46 -428 -19 -555 6 -30 14 -68 17 -85 11 -63 67 -214 114 -305
264 -515 815 -743 1318 -546 371 146 637 506 717 971 11 64 12 273 3 360 -60
526 -442 970 -908 1055 -63 11 -215 19 -266 13z"/>
<path d="M1575 2519 c-22 -4 -56 -11 -75 -15 -19 -3 -43 -10 -52 -15 -10 -5
-18 -7 -18 -5 0 10 -173 -55 -264 -99 -81 -39 -231 -131 -262 -160 -6 -5 -39
-32 -73 -60 -33 -27 -94 -85 -133 -128 -233 -251 -378 -562 -419 -897 -11 -94
-19 -1064 -9 -1079 3 -4 1032 -8 2288 -8 l2282 1 1 25 c0 14 1 229 1 476 1
397 -5 636 -16 654 -2 3 -7 24 -10 46 -38 239 -182 539 -355 740 -165 191
-403 359 -626 442 -22 8 -49 18 -60 23 -81 31 -276 73 -286 62 -4 -4 -52 -124
-108 -267 -57 -143 -108 -273 -115 -290 -7 -16 -37 -91 -66 -165 -29 -74 -58
-148 -65 -165 -7 -16 -41 -102 -75 -190 -34 -88 -69 -175 -77 -193 -8 -18 -20
-50 -27 -70 -16 -46 -6 -82 -110 388 -47 212 -88 394 -91 405 -4 16 25 51 135
159 l139 140 -101 100 -102 101 -267 0 -267 -1 -101 -100 -101 -101 139 -139
139 -139 -45 -200 c-24 -110 -46 -209 -49 -220 -2 -11 -6 -29 -8 -40 -2 -11
-10 -42 -16 -70 -6 -27 -14 -61 -16 -75 -3 -14 -9 -41 -14 -60 -8 -33 -12 -48
-25 -118 -3 -15 -8 -35 -11 -46 -4 -12 -47 85 -120 270 -63 159 -118 298 -123
309 -5 11 -37 92 -71 180 -34 88 -65 169 -70 180 -26 56 -160 403 -160 413 0
13 -7 13 -65 1z"/>
</g>
</svg>
